<svg width="846" height="564" viewBox="0 0 846 564" fill="none" xmlns="http://www.w3.org/2000/svg">
<rect width="846" height="564" fill="white"/>
<path opacity="0.12" d="M592.744 100.013C572.051 79.8112 548.343 63.0302 523.15 51.2748C484.782 33.3743 442.513 24.7412 400.243 24.2312C276.713 22.7384 267.301 167.56 229.32 187.7C191.338 207.839 122.493 210.203 120.124 290.749C118.628 341.415 130.483 393.5 163.803 432.971C194.33 469.12 239.167 487.444 283.344 500.978C332.956 516.179 385.572 531.094 437.751 520.831C491.302 510.307 528.922 467.988 572.899 439.389C600.584 421.389 625.44 402.431 642.542 373.534C644.587 370.089 646.506 366.556 648.326 362.986C671.212 318.091 675.7 266.305 663.085 217.729C651.754 174.14 626.188 132.617 592.769 100.001L592.744 100.013Z" fill="#F7E08E"/>
<path d="M96 544.22H673.641" stroke="#263238" stroke-linecap="round" stroke-linejoin="round"/>
<path d="M451.743 166.191H367.135L353.636 227.564H465.242L451.743 166.191Z" fill="#1F69FF" stroke="#232A3D" stroke-linecap="round" stroke-linejoin="round"/>
<path d="M478.729 226.443H340.149L318.037 318.023H500.853L478.729 226.443Z" fill="#6598FF" stroke="#232A3D" stroke-linecap="round" stroke-linejoin="round"/>
<path d="M451.644 226.605H367.234V237.725H451.644V226.605Z" fill="white" stroke="#232A3D" stroke-linecap="round" stroke-linejoin="round"/>
<path d="M453.925 236.704H364.966V248.06H453.925V236.704Z" fill="white" stroke="#232A3D" stroke-linecap="round" stroke-linejoin="round"/>
<path d="M456.193 247.374H362.685V258.954H456.193V247.374Z" fill="white" stroke="#232A3D" stroke-linecap="round" stroke-linejoin="round"/>
<path d="M458.474 258.332H360.416V270.148H458.474V258.332Z" fill="white" stroke="#232A3D" stroke-linecap="round" stroke-linejoin="round"/>
<path d="M460.743 269.588H358.135V281.628H460.743V269.588Z" fill="white" stroke="#232A3D" stroke-linecap="round" stroke-linejoin="round"/>
<path d="M463.024 281.131H355.867V293.408H463.024V281.131Z" fill="white" stroke="#232A3D" stroke-linecap="round" stroke-linejoin="round"/>
<path d="M465.292 293.27H353.586V305.783H465.292V293.27Z" fill="white" stroke="#232A3D" stroke-linecap="round" stroke-linejoin="round"/>
<path d="M467.573 305.099H351.317V317.836H467.573V305.099Z" fill="white" stroke="#232A3D" stroke-linecap="round" stroke-linejoin="round"/>
<path d="M429.17 166.354H389.72V173.701H429.17V166.354Z" fill="white" stroke="#232A3D" stroke-linecap="round" stroke-linejoin="round"/>
<path d="M430.23 173.016H388.648V180.511H430.23V173.016Z" fill="white" stroke="#232A3D" stroke-linecap="round" stroke-linejoin="round"/>
<path d="M431.289 180.063H387.589V187.709H431.289V180.063Z" fill="white" stroke="#232A3D" stroke-linecap="round" stroke-linejoin="round"/>
<path d="M432.361 187.297H386.529V195.104H432.361V187.297Z" fill="white" stroke="#232A3D" stroke-linecap="round" stroke-linejoin="round"/>
<path d="M433.421 194.743H385.457V202.7H433.421V194.743Z" fill="white" stroke="#232A3D" stroke-linecap="round" stroke-linejoin="round"/>
<path d="M434.48 202.364H384.398V210.47H434.48V202.364Z" fill="white" stroke="#232A3D" stroke-linecap="round" stroke-linejoin="round"/>
<path d="M435.552 210.383H383.338V218.65H435.552V210.383Z" fill="white" stroke="#232A3D" stroke-linecap="round" stroke-linejoin="round"/>
<path d="M436.599 218.202H382.266V226.619H436.599V218.202Z" fill="white" stroke="#232A3D" stroke-linecap="round" stroke-linejoin="round"/>
<path d="M526.243 317.388H292.634L258 450.22H562.5L526.243 317.388Z" fill="#8FB4FF" stroke="#232A3D" stroke-linecap="round" stroke-linejoin="round"/>
<path d="M583.304 414.22H225.553L166.5 544.22H642.054L583.304 414.22Z" fill="#8FB4FF" stroke="#232A3D" stroke-linecap="round" stroke-linejoin="round"/>
<path d="M490.421 317.339H328.47V333.613H490.421V317.339Z" fill="white" stroke="#232A3D" stroke-linecap="round" stroke-linejoin="round"/>
<path d="M494.771 332.106H324.095V348.717H494.771V332.106Z" fill="white" stroke="#232A3D" stroke-linecap="round" stroke-linejoin="round"/>
<path d="M499.146 347.72H319.732V364.666H499.146V347.72Z" fill="white" stroke="#232A3D" stroke-linecap="round" stroke-linejoin="round"/>
<path d="M503.508 363.757H315.37V381.039H503.508V363.757Z" fill="white" stroke="#232A3D" stroke-linecap="round" stroke-linejoin="round"/>
<path d="M507.883 380.219H311.007V397.837H507.883V380.219Z" fill="white" stroke="#232A3D" stroke-linecap="round" stroke-linejoin="round"/>
<path d="M512.246 397.114H306.645V415.082H512.246V397.114Z" fill="white" stroke="#232A3D" stroke-linecap="round" stroke-linejoin="round"/>
<path d="M517.02 414.059H301.98V435.667H517.02V414.059Z" fill="white" stroke="#232A3D" stroke-linecap="round" stroke-linejoin="round"/>
<path d="M522.796 433.668H296.171V455.723H522.796V433.668Z" fill="white" stroke="#232A3D" stroke-linecap="round" stroke-linejoin="round"/>
<path d="M528.605 454.397H290.378V476.899H528.605V454.397Z" fill="white" stroke="#232A3D" stroke-linecap="round" stroke-linejoin="round"/>
<path d="M534.398 475.692H284.585V498.64H534.398V475.692Z" fill="white" stroke="#232A3D" stroke-linecap="round" stroke-linejoin="round"/>
<path d="M540.207 497.552H278.793V520.946H540.207V497.552Z" fill="white" stroke="#232A3D" stroke-linecap="round" stroke-linejoin="round"/>
<path d="M546 519.984H273V543.842H546V519.984Z" fill="white" stroke="#232A3D" stroke-linecap="round" stroke-linejoin="round"/>
<path d="M199.193 271.013L183.632 284.679" stroke="#F7E08E" stroke-linecap="round" stroke-linejoin="round"/>
<path d="M337.829 149.268L208.783 262.581" stroke="#F7E08E" stroke-linecap="round" stroke-linejoin="round"/>
<path d="M324.27 145.876L236.162 178.043" stroke="#F7E08E" stroke-linecap="round" stroke-linejoin="round"/>
<path d="M243.577 132.697L187.009 137.409" stroke="#F7E08E" stroke-linecap="round" stroke-linejoin="round"/>
<path d="M309.022 127.255L249.878 132.175" stroke="#F7E08E" stroke-linecap="round" stroke-linejoin="round"/>
<path d="M157.61 52.3155L142.955 47.6904" stroke="#F7E08E" stroke-linecap="round" stroke-linejoin="round"/>
<path d="M283.941 92.1661L161.823 53.6357" stroke="#F7E08E" stroke-linecap="round" stroke-linejoin="round"/>
<path d="M303.94 98.4787L292.139 94.7578" stroke="#F7E08E" stroke-linecap="round" stroke-linejoin="round"/>
<path d="M616.458 267.844L632.036 281.51" stroke="#F7E08E" stroke-linecap="round" stroke-linejoin="round"/>
<path d="M477.822 146.099L606.868 259.412" stroke="#F7E08E" stroke-linecap="round" stroke-linejoin="round"/>
<path d="M491.381 142.707L579.506 174.874" stroke="#F7E08E" stroke-linecap="round" stroke-linejoin="round"/>
<path d="M572.074 129.528L628.642 134.24" stroke="#F7E08E" stroke-linecap="round" stroke-linejoin="round"/>
<path d="M506.628 124.086L565.773 129.007" stroke="#F7E08E" stroke-linecap="round" stroke-linejoin="round"/>
<path d="M658.041 49.1465L672.696 44.5215" stroke="#F7E08E" stroke-linecap="round" stroke-linejoin="round"/>
<path d="M531.71 88.9971L653.828 50.4668" stroke="#F7E08E" stroke-linecap="round" stroke-linejoin="round"/>
<path d="M511.711 95.3098L523.512 91.5889" stroke="#F7E08E" stroke-linecap="round" stroke-linejoin="round"/>
<path d="M399.862 230.575C399.862 230.575 394.864 229.106 395.163 233.513C395.462 237.909 400.747 240.847 400.747 240.847L399.862 230.575Z" fill="white" stroke="#232A3D" stroke-linecap="round" stroke-linejoin="round"/>
<path d="M430.412 230.575C430.412 230.575 434.525 228.52 434.525 232.33C434.525 236.14 430.126 239.963 430.126 239.963L430.425 230.575H430.412Z" fill="white" stroke="#232A3D" stroke-linecap="round" stroke-linejoin="round"/>
<path d="M399.276 218.547C399.276 218.547 399.575 239.378 400.747 243.188C401.918 246.998 405.446 251.991 408.674 251.991C411.902 251.991 422.771 251.107 424.828 249.936C426.885 248.766 430.113 244.657 430.113 239.963C430.113 235.269 430.699 223.527 430.699 223.527C430.699 223.527 432.456 222.357 433.64 219.717C434.812 217.077 430.699 213.267 429.826 212.968C428.941 212.67 425.713 211.798 425.713 211.798C425.713 211.798 427.77 210.042 427.184 208.573C426.598 207.104 421.014 206.22 418.671 206.22C416.327 206.22 413.386 207.975 413.386 207.975C413.386 207.975 403.988 207.677 401.046 211.2C398.104 214.724 399.288 218.534 399.288 218.534L399.276 218.547Z" fill="#232A3D" stroke="#232A3D" stroke-linecap="round" stroke-linejoin="round"/>
<path d="M432.182 256.112L394.589 256.697C394.589 256.697 396.347 251.119 398.403 250.534C400.46 249.948 421.612 249.363 426.012 249.948C430.412 250.534 432.182 256.112 432.182 256.112Z" fill="#9B51E0" stroke="#232A3D" stroke-linecap="round" stroke-linejoin="round"/>
<path d="M419.082 503.918C419.082 503.918 417.499 520.976 418.845 521.512C420.204 522.047 424.267 523.952 434.027 521.512C436.619 520.864 431.858 503.37 431.858 503.37C431.858 503.37 425.551 507.168 419.082 503.918Z" fill="#232A3D" stroke="#232A3D" stroke-linecap="round" stroke-linejoin="round"/>
<path d="M373.836 371.834L378.809 446.069C378.809 446.069 375.83 459.728 378.56 471.893C381.29 484.058 385.765 526.766 385.765 526.766C385.765 526.766 387.996 522.545 395.462 521.798C402.916 521.051 404.411 524.026 404.411 524.026C404.411 524.026 403.913 491.753 403.913 488.03C403.913 484.307 406.892 460.724 406.643 453.515C406.393 446.318 404.648 438.125 404.648 438.125L406.393 393.188L410.369 392.69C410.369 392.69 407.64 429.683 409.372 438.125C411.117 446.567 415.343 472.889 415.592 475.118C415.841 477.346 419.07 503.918 419.07 503.918C419.07 503.918 425.526 505.661 428.518 505.412C431.497 505.163 433.491 502.934 433.491 502.934C433.491 502.934 438.963 462.965 438.464 456.752C437.966 450.539 432.245 435.647 432.245 434.402C432.245 433.157 430.749 424.715 430.749 424.715C430.749 424.715 441.182 395.666 442.927 385.232C444.672 374.797 444.921 370.091 444.921 370.091C444.921 370.091 415.343 374.81 400.685 374.81C386.026 374.81 373.836 371.834 373.836 371.834Z" fill="#9B51E0" stroke="#232A3D" stroke-linecap="round" stroke-linejoin="round"/>
<path d="M387.223 445.696C390.626 442.894 395.113 439.495 399.687 436.855" stroke="#232A3D" stroke-linecap="round" stroke-linejoin="round"/>
<path d="M381.227 450.95C381.227 450.95 382.536 449.705 384.668 447.85" stroke="#232A3D" stroke-linecap="round" stroke-linejoin="round"/>
<path d="M386.662 440.827L402.218 430.343" stroke="#232A3D" stroke-linecap="round" stroke-linejoin="round"/>
<path d="M444.921 370.104C444.921 370.104 415.343 374.823 400.685 374.823C386.026 374.823 373.836 371.847 373.836 371.847L374.135 376.267C378.435 379.504 386.101 385.444 392.383 391.196C399.775 397.97 404.461 400.809 406.069 401.693L406.393 393.201L410.369 392.703C410.369 392.703 407.64 429.696 409.372 438.138C410.17 442.022 411.504 449.705 412.725 457.088C414.545 451.324 418.048 444.438 424.492 443.766C429.079 443.292 433.017 444.749 436.071 446.654C434.314 440.877 432.232 435.162 432.232 434.415C432.232 433.169 430.736 424.727 430.736 424.727C430.736 424.727 441.169 395.679 442.914 385.244C444.659 374.81 444.908 370.104 444.908 370.104H444.921Z" fill="#232A3D" stroke="#232A3D" stroke-linecap="round" stroke-linejoin="round"/>
<path d="M365.173 357.266C365.173 357.266 367.006 360.727 368.227 361.138C369.449 361.549 370.471 365.21 370.471 368.87C370.471 372.531 369.249 372.942 369.249 372.942C369.249 372.942 371.081 375.183 370.271 377.823C369.461 380.475 364.151 382.305 361.92 383.115C359.676 383.924 356.211 380.263 354.79 378.433C353.369 376.603 354.379 361.947 354.379 361.947C354.379 361.947 364.363 359.295 365.186 357.266H365.173Z" fill="white" stroke="#232A3D" stroke-linecap="round" stroke-linejoin="round"/>
<path d="M369.249 372.941C369.249 372.941 365.173 374.572 364.562 374.983C363.952 375.394 361.708 372.742 362.518 371.932C363.328 371.123 366.395 369.081 366.395 369.081" stroke="#232A3D" stroke-linecap="round" stroke-linejoin="round"/>
<path d="M360.898 365.62C360.898 365.62 365.173 366.641 363.752 370.501" stroke="#232A3D" stroke-linecap="round" stroke-linejoin="round"/>
<path d="M363.341 374.373C363.341 374.373 359.066 376.004 359.066 377.635C359.066 379.266 361.11 381.296 362.331 381.097C363.553 380.898 362.132 379.266 362.132 379.266" stroke="#232A3D" stroke-linecap="round" stroke-linejoin="round"/>
<path d="M465.25 365.621C465.25 365.621 461.785 369.692 460.763 371.934C459.741 374.175 457.709 376.204 458.108 377.636C458.52 379.056 458.719 380.077 458.719 380.077C458.719 380.077 456.887 384.348 458.719 385.568C460.551 386.788 461.985 386.987 462.795 386.987C463.605 386.987 466.871 389.639 469.114 389.229C471.358 388.818 474.611 387.809 474.823 380.886C475.023 373.963 475.845 366.019 475.845 366.019C475.845 366.019 468.504 365.608 465.25 365.608V365.621Z" fill="white" stroke="#232A3D" stroke-linecap="round" stroke-linejoin="round"/>
<path d="M458.731 380.077C458.731 380.077 464.228 383.538 465.861 383.538C467.494 383.538 468.715 381.098 467.494 379.877C466.272 378.657 462.807 376.416 462.807 376.416" stroke="#232A3D" stroke-linecap="round" stroke-linejoin="round"/>
<path d="M469.526 372.133C469.526 372.133 466.26 375.794 467.482 379.865" stroke="#232A3D" stroke-linecap="round" stroke-linejoin="round"/>
<path d="M468.105 381.098C468.105 381.098 471.981 382.119 472.181 383.339C472.38 384.559 471.981 386.601 471.159 386.601C470.336 386.601 469.937 385.182 469.937 385.182" stroke="#232A3D" stroke-linecap="round" stroke-linejoin="round"/>
<path d="M478.887 364.09C478.887 364.09 477.416 367.602 473.888 369.37C470.361 371.138 464.191 366.431 464.191 366.431L457.722 328.579L443.625 307.462L442.44 338.266C442.44 338.266 448.024 372.308 447.14 372.893C446.255 373.479 433.341 379.343 411.603 381.697C389.865 384.037 370.77 373.778 370.77 373.778L379.869 338.553L375.756 312.442L365.622 328.305L366.943 355.574C366.943 355.574 364.6 361.737 360.487 362.609C356.361 363.493 352.547 362.609 352.547 362.609C352.547 362.609 352.547 362.571 352.547 362.522C352.509 362.347 352.459 361.949 352.36 361.364C352.31 361.102 352.272 360.791 352.21 360.442C352.123 359.894 352.023 359.272 351.911 358.562C351.824 358.027 351.736 357.466 351.637 356.844C351.55 356.246 351.437 355.599 351.338 354.926C349.742 345.052 347.187 329.102 347 327.683V327.62C347 324.856 366.096 275.736 367.255 274.578C368.439 273.407 368.439 269.585 372.552 266.945C376.665 264.306 398.703 255.204 398.703 255.204C407.216 252.564 430.711 256.088 430.711 256.088C430.711 256.088 439.823 261.367 440.995 261.952C442.166 262.55 454.793 270.158 457.734 271.926C460.676 273.694 460.963 276.919 462.134 280.729C463.318 284.539 471.832 312.716 474.474 317.697C477.117 322.69 478.887 364.066 478.887 364.066V364.09Z" fill="#9B51E0" stroke="#232A3D" stroke-linecap="round" stroke-linejoin="round"/>
<path d="M365.647 328.318L366.968 355.586C366.968 355.586 364.625 361.75 360.512 362.621C356.386 363.505 352.572 362.621 352.572 362.621C352.572 362.621 352.572 362.584 352.572 362.534C352.534 362.36 352.484 361.961 352.385 361.376C352.335 361.115 352.297 360.791 352.235 360.455C352.148 359.907 352.048 359.284 351.936 358.575C351.849 358.039 351.761 357.479 351.662 356.856C351.574 356.259 351.462 355.611 351.363 354.939C349.767 345.065 347.212 329.115 347.025 327.695V327.633C348.72 328.579 351.874 330.136 353.88 329.775C355.426 329.501 357.271 327.459 358.642 325.653C358.904 324.832 359.128 324.222 359.253 323.86C360.723 319.913 369.336 296.007 369.336 296.007L375.793 312.443L365.659 328.306L365.647 328.318Z" fill="#232A3D" stroke="#232A3D" stroke-linecap="round" stroke-linejoin="round"/>
<path d="M370.496 285.161L375.78 312.442" stroke="#232A3D" stroke-linecap="round" stroke-linejoin="round"/>
<path d="M447.838 288.523L443.637 307.462L452.449 288.673" stroke="#232A3D" stroke-linecap="round" stroke-linejoin="round"/>
<path d="M449.508 281.053L448.835 284.066" stroke="#232A3D" stroke-linecap="round" stroke-linejoin="round"/>
<path d="M409.559 291.312C409.559 291.312 426.598 322.415 429.826 324.469" stroke="#232A3D" stroke-linecap="round" stroke-linejoin="round"/>
<path d="M427.807 327.122L430.126 329.164" stroke="#232A3D" stroke-linecap="round" stroke-linejoin="round"/>
<path d="M414.557 315.382L425.402 324.994" stroke="#232A3D" stroke-linecap="round" stroke-linejoin="round"/>
<path d="M478.874 364.091C478.874 364.091 478.4 352.959 477.578 341.554C472.492 339.811 466.634 337.358 464.49 334.755C460.377 329.762 445.395 309.517 445.395 309.517L445.432 310.152L457.734 328.592L464.191 366.444C464.191 366.444 470.361 371.138 473.888 369.383C477.416 367.627 478.887 364.103 478.887 364.103L478.874 364.091Z" fill="#232A3D" stroke="#232A3D" stroke-linecap="round" stroke-linejoin="round"/>
<path d="M385.777 526.767L385.229 535.607C385.229 535.607 380.891 541.559 381.975 544.809C383.06 548.058 387.397 547.511 393.904 547.511C400.41 547.511 405.022 542.904 405.022 538.844C405.022 534.785 404.411 524.027 404.411 524.027C404.411 524.027 401.632 521.537 395.462 521.799C389.292 522.06 385.764 526.767 385.764 526.767H385.777Z" fill="#232A3D" stroke="#232A3D" stroke-linecap="round" stroke-linejoin="round"/>
<path d="M403.427 543.091C401.731 541.833 398.815 540.376 395.262 541.559C390.501 543.141 387.634 546.042 384.132 546.951C386.226 547.748 389.579 547.511 393.904 547.511C398.229 547.511 401.544 545.569 403.427 543.091Z" fill="white" stroke="#232A3D" stroke-linecap="round" stroke-linejoin="round"/>
<rect x="322.537" y="81.4951" width="173.244" height="40.1418" rx="6" fill="#232A3D"/>
<path d="M370.073 146.271C370.073 149.585 372.759 152.271 376.073 152.271H441.188C444.501 152.271 447.188 149.585 447.188 146.271V119.524H370.073V146.271Z" fill="#232A3D"/>
<path d="M435.114 70.9321L437.624 58.4839H439.83L439.627 60.8924H439.729C440.219 60.1149 440.785 59.4727 441.427 58.9656C442.086 58.4417 442.788 58.1797 443.531 58.1797C444.039 58.1797 444.453 58.2557 444.774 58.4079L443.861 60.791C443.709 60.7065 443.531 60.6558 443.329 60.6389C443.126 60.6051 442.915 60.5882 442.695 60.5882C442.12 60.5882 441.537 60.8248 440.945 61.2981C440.371 61.7544 439.83 62.4558 439.323 63.4023L437.852 70.9321H435.114Z" fill="#232A3D"/>
<path d="M426.763 71.2363C425.377 71.2363 424.253 70.78 423.391 69.8673C422.546 68.9377 422.123 67.7039 422.123 66.1658C422.123 64.9658 422.318 63.884 422.706 62.9206C423.095 61.9403 423.619 61.0953 424.278 60.3854C424.937 59.6755 425.673 59.1346 426.484 58.7628C427.295 58.3741 428.123 58.1797 428.968 58.1797C430.371 58.1797 431.495 58.636 432.34 59.5487C433.202 60.4614 433.633 61.6953 433.633 63.2502C433.633 64.4334 433.439 65.5151 433.05 66.4954C432.662 67.4757 432.138 68.3208 431.478 69.0307C430.819 69.7405 430.084 70.2898 429.273 70.6786C428.461 71.0504 427.625 71.2363 426.763 71.2363ZM427.067 69.0307C427.726 69.0307 428.343 68.7771 428.918 68.2701C429.509 67.763 429.983 67.0785 430.338 66.2165C430.692 65.3545 430.87 64.3911 430.87 63.3263C430.87 62.3798 430.684 61.653 430.312 61.146C429.94 60.6389 429.399 60.3854 428.69 60.3854C428.03 60.3854 427.405 60.6389 426.814 61.146C426.239 61.653 425.766 62.3375 425.394 63.1995C425.039 64.0446 424.861 64.9996 424.861 66.0644C424.861 66.994 425.047 67.7208 425.419 68.2447C425.791 68.7687 426.34 69.0307 427.067 69.0307Z" fill="#232A3D"/>
<path d="M415.456 70.9323L417.966 58.4841H420.679L418.194 70.9323H415.456ZM419.944 56.2784C419.538 56.2784 419.174 56.1601 418.853 55.9235C418.532 55.67 418.372 55.315 418.372 54.8587C418.372 54.3685 418.549 53.9544 418.904 53.6164C419.276 53.2615 419.707 53.084 420.197 53.084C420.603 53.084 420.966 53.2107 421.287 53.4643C421.608 53.7009 421.769 54.0474 421.769 54.5037C421.769 55.0108 421.591 55.4333 421.237 55.7714C420.882 56.1094 420.451 56.2784 419.944 56.2784Z" fill="#232A3D"/>
<path d="M401.789 70.9321L404.299 58.4839H406.505L406.404 60.2333H406.505C407.147 59.6755 407.815 59.1938 408.508 58.7882C409.218 58.3825 409.961 58.1797 410.739 58.1797C411.787 58.1797 412.539 58.4586 412.995 59.0163C413.452 59.5572 413.68 60.3262 413.68 61.3234C413.68 61.6108 413.663 61.8896 413.629 62.1601C413.612 62.4305 413.561 62.7347 413.477 63.0728L411.905 70.9321H409.192L410.714 63.4277C410.764 63.1404 410.806 62.8953 410.84 62.6925C410.891 62.4896 410.916 62.2953 410.916 62.1094C410.916 61.0445 410.392 60.5121 409.344 60.5121C408.922 60.5121 408.457 60.6643 407.95 60.9685C407.443 61.2727 406.86 61.7629 406.201 62.4389L404.527 70.9321H401.789Z" fill="#232A3D"/>
<path d="M391.772 71.2378C390.741 71.2378 389.989 70.9589 389.516 70.4011C389.043 69.8434 388.806 69.0743 388.806 68.094C388.806 67.8067 388.823 67.5278 388.857 67.2574C388.891 66.9701 388.941 66.6658 389.009 66.3447L390.581 58.4854H393.293L391.798 65.9898C391.73 66.2771 391.679 66.5222 391.646 66.725C391.612 66.9278 391.595 67.1222 391.595 67.3081C391.595 68.3729 392.11 68.9053 393.141 68.9053C393.97 68.9053 394.992 68.2631 396.209 66.9785L397.882 58.4854H400.595L398.136 70.9335H395.93L396.032 69.1588H395.93C395.305 69.7166 394.637 70.2068 393.927 70.6293C393.234 71.0349 392.516 71.2378 391.772 71.2378Z" fill="#232A3D"/>
<path d="M379.866 71.2365C378.886 71.2365 378.015 71.0083 377.254 70.5519C376.494 70.0956 375.902 69.4787 375.48 68.7012L377.204 67.104C377.44 67.6279 377.787 68.0589 378.243 68.397C378.7 68.7181 379.24 68.8787 379.866 68.8787C380.609 68.8787 381.218 68.5998 381.691 68.042C382.164 67.4674 382.511 66.6476 382.731 65.5828L384.962 54.3516H387.7L385.367 66.0138C385.181 66.9941 384.86 67.8815 384.404 68.6758C383.948 69.4533 383.339 70.0787 382.579 70.5519C381.835 71.0083 380.931 71.2365 379.866 71.2365Z" fill="#232A3D"/>
<path d="M422.283 140.595V122.696H425.198V127.31L425.097 129.719C425.621 129.229 426.204 128.798 426.846 128.426C427.488 128.037 428.232 127.843 429.077 127.843C430.412 127.843 431.384 128.274 431.993 129.136C432.601 129.998 432.905 131.215 432.905 132.787V140.595H429.99V133.167C429.99 132.136 429.838 131.409 429.534 130.987C429.229 130.564 428.731 130.353 428.038 130.353C427.497 130.353 427.015 130.488 426.593 130.758C426.187 131.012 425.722 131.392 425.198 131.899V140.595H422.283Z" fill="white"/>
<path d="M417.508 140.9C416.071 140.9 415.049 140.486 414.44 139.657C413.849 138.812 413.553 137.722 413.553 136.387V130.454H411.778V128.274L413.705 128.147L414.06 124.75H416.494V128.147H419.663V130.454H416.494V136.387C416.494 137.84 417.077 138.567 418.243 138.567C418.463 138.567 418.691 138.542 418.928 138.491C419.164 138.424 419.367 138.356 419.536 138.288L420.043 140.443C419.705 140.562 419.316 140.663 418.877 140.748C418.454 140.849 417.998 140.9 417.508 140.9Z" fill="white"/>
<path d="M403.463 140.898C402.381 140.898 401.494 140.56 400.801 139.884C400.124 139.208 399.786 138.329 399.786 137.248C399.786 135.912 400.37 134.881 401.536 134.155C402.702 133.411 404.561 132.904 407.113 132.633C407.096 131.974 406.919 131.408 406.581 130.935C406.26 130.445 405.677 130.2 404.832 130.2C404.223 130.2 403.623 130.318 403.032 130.555C402.457 130.791 401.891 131.078 401.333 131.417L400.268 129.464C400.961 129.025 401.739 128.645 402.601 128.323C403.479 128.002 404.409 127.842 405.389 127.842C406.944 127.842 408.102 128.307 408.863 129.236C409.64 130.149 410.029 131.476 410.029 133.217V140.594H407.62L407.418 139.225H407.316C406.758 139.698 406.158 140.096 405.516 140.417C404.891 140.738 404.206 140.898 403.463 140.898ZM404.401 138.617C404.908 138.617 405.364 138.498 405.77 138.262C406.192 138.008 406.64 137.67 407.113 137.248V134.459C405.423 134.679 404.249 135.008 403.589 135.448C402.93 135.87 402.601 136.394 402.601 137.019C402.601 137.577 402.77 137.983 403.108 138.236C403.446 138.49 403.877 138.617 404.401 138.617Z" fill="white"/>
<path d="M386.909 140.594V124.014H392.131C393.365 124.014 394.464 124.174 395.427 124.495C396.391 124.817 397.151 125.349 397.709 126.093C398.267 126.836 398.546 127.85 398.546 129.135C398.546 130.352 398.267 131.358 397.709 132.152C397.151 132.946 396.399 133.538 395.452 133.927C394.506 134.315 393.433 134.51 392.233 134.51H389.85V140.594H386.909ZM389.85 132.152H392.005C394.438 132.152 395.655 131.146 395.655 129.135C395.655 128.087 395.334 127.369 394.692 126.98C394.067 126.574 393.137 126.371 391.903 126.371H389.85V132.152Z" fill="white"/>
<path d="M474.613 108.208C473.177 108.208 472.154 107.794 471.546 106.966C470.954 106.121 470.658 105.031 470.658 103.695V97.763H468.884V95.5826L470.811 95.4559L471.166 92.0586H473.599V95.4559H476.768V97.763H473.599V103.695C473.599 105.149 474.183 105.876 475.349 105.876C475.568 105.876 475.797 105.85 476.033 105.8C476.27 105.732 476.473 105.665 476.642 105.597L477.149 107.752C476.811 107.87 476.422 107.972 475.983 108.056C475.56 108.158 475.104 108.208 474.613 108.208Z" fill="white"/>
<path d="M463.277 108.208C462.432 108.208 461.587 108.047 460.742 107.726C459.897 107.388 459.17 106.974 458.562 106.484L459.931 104.608C460.489 105.03 461.046 105.369 461.604 105.622C462.162 105.876 462.753 106.002 463.379 106.002C464.055 106.002 464.554 105.859 464.875 105.571C465.196 105.284 465.356 104.929 465.356 104.507C465.356 104.152 465.221 103.864 464.951 103.645C464.697 103.408 464.368 103.205 463.962 103.036C463.556 102.85 463.134 102.673 462.694 102.504C462.153 102.301 461.613 102.056 461.072 101.768C460.548 101.464 460.117 101.084 459.779 100.628C459.441 100.154 459.272 99.5712 459.272 98.8782C459.272 97.7796 459.677 96.8838 460.489 96.1908C461.3 95.4979 462.399 95.1514 463.784 95.1514C464.663 95.1514 465.449 95.3035 466.142 95.6077C466.835 95.9119 467.435 96.2584 467.942 96.6472L466.599 98.4219C466.159 98.1007 465.711 97.8472 465.255 97.6613C464.816 97.4585 464.351 97.3571 463.861 97.3571C463.235 97.3571 462.77 97.4923 462.466 97.7627C462.162 98.0162 462.01 98.3374 462.01 98.7261C462.01 99.2163 462.263 99.5881 462.77 99.8416C463.277 100.095 463.869 100.34 464.545 100.577C465.12 100.78 465.677 101.033 466.218 101.337C466.759 101.625 467.207 102.005 467.562 102.478C467.934 102.952 468.12 103.577 468.12 104.354C468.12 105.419 467.706 106.332 466.878 107.092C466.049 107.836 464.849 108.208 463.277 108.208Z" fill="white"/>
<path d="M448.088 113.025C447.75 113.025 447.454 113 447.201 112.949C446.947 112.899 446.702 112.84 446.466 112.772L446.998 110.49C447.116 110.524 447.252 110.558 447.404 110.592C447.573 110.642 447.733 110.668 447.885 110.668C448.545 110.668 449.069 110.465 449.457 110.059C449.863 109.67 450.167 109.163 450.37 108.538L450.598 107.752L445.705 95.4561H448.671L450.826 101.566C451.012 102.107 451.19 102.682 451.359 103.29C451.545 103.882 451.731 104.473 451.916 105.065H452.018C452.17 104.49 452.322 103.907 452.474 103.315C452.643 102.707 452.804 102.124 452.956 101.566L454.832 95.4561H457.646L453.133 108.462C452.609 109.865 451.976 110.972 451.232 111.783C450.488 112.611 449.44 113.025 448.088 113.025Z" fill="white"/>
<path d="M443.208 108.208C442.177 108.208 441.442 107.895 441.003 107.27C440.58 106.645 440.369 105.791 440.369 104.709V90.0049H443.284V104.862C443.284 105.217 443.352 105.47 443.487 105.622C443.622 105.757 443.766 105.825 443.918 105.825C443.986 105.825 444.045 105.825 444.096 105.825C444.163 105.808 444.256 105.791 444.374 105.774L444.755 107.955C444.586 108.022 444.366 108.081 444.096 108.132C443.842 108.183 443.546 108.208 443.208 108.208Z" fill="white"/>
<path d="M430.313 108.208C429.231 108.208 428.344 107.87 427.651 107.194C426.975 106.518 426.637 105.639 426.637 104.557C426.637 103.222 427.22 102.191 428.386 101.464C429.553 100.721 431.412 100.213 433.964 99.943C433.947 99.2839 433.77 98.7176 433.432 98.2444C433.11 97.7542 432.527 97.5092 431.682 97.5092C431.074 97.5092 430.474 97.6275 429.882 97.8641C429.308 98.1007 428.741 98.3881 428.184 98.7261L427.119 96.7739C427.812 96.3345 428.589 95.9542 429.451 95.6331C430.33 95.3119 431.26 95.1514 432.24 95.1514C433.795 95.1514 434.953 95.6162 435.713 96.5458C436.491 97.4585 436.88 98.7853 436.88 100.526V107.904H434.471L434.268 106.535H434.167C433.609 107.008 433.009 107.405 432.367 107.726C431.741 108.047 431.057 108.208 430.313 108.208ZM431.251 105.926C431.758 105.926 432.215 105.808 432.62 105.571C433.043 105.318 433.491 104.98 433.964 104.557V101.768C432.274 101.988 431.099 102.318 430.44 102.757C429.781 103.18 429.451 103.704 429.451 104.329C429.451 104.887 429.62 105.292 429.958 105.546C430.296 105.8 430.727 105.926 431.251 105.926Z" fill="white"/>
<path d="M413.11 107.904V95.4556H415.518L415.721 97.1289H415.822C416.38 96.588 416.989 96.1232 417.648 95.7345C418.307 95.3457 419.059 95.1514 419.904 95.1514C421.239 95.1514 422.211 95.5824 422.82 96.4444C423.428 97.3063 423.732 98.5233 423.732 100.095V107.904H420.817V100.475C420.817 99.4444 420.665 98.7176 420.36 98.2951C420.056 97.8726 419.558 97.6613 418.865 97.6613C418.324 97.6613 417.842 97.7965 417.42 98.0669C417.014 98.3205 416.549 98.7007 416.025 99.2078V107.904H413.11Z" fill="white"/>
<path d="M402.623 99.0812L402.04 101.109H406.274L405.691 99.0812C405.42 98.2023 405.159 97.298 404.905 96.3684C404.668 95.4388 404.432 94.5177 404.195 93.605H404.094C403.874 94.5346 403.637 95.4642 403.384 96.3938C403.147 97.3065 402.894 98.2023 402.623 99.0812ZM397.071 107.904L402.471 91.3232H405.919L411.319 107.904H408.226L406.933 103.416H401.356L400.063 107.904H397.071Z" fill="white"/>
<path d="M383.841 108.208C382.76 108.208 381.872 107.87 381.179 107.194C380.503 106.518 380.165 105.639 380.165 104.557C380.165 103.222 380.748 102.191 381.915 101.464C383.081 100.721 384.94 100.213 387.492 99.943C387.475 99.2839 387.298 98.7176 386.96 98.2444C386.639 97.7542 386.056 97.5092 385.21 97.5092C384.602 97.5092 384.002 97.6275 383.41 97.8641C382.836 98.1007 382.27 98.3881 381.712 98.7261L380.647 96.7739C381.34 96.3345 382.117 95.9542 382.979 95.6331C383.858 95.3119 384.788 95.1514 385.768 95.1514C387.323 95.1514 388.481 95.6162 389.242 96.5458C390.019 97.4585 390.408 98.7853 390.408 100.526V107.904H387.999L387.796 106.535H387.695C387.137 107.008 386.537 107.405 385.895 107.726C385.27 108.047 384.585 108.208 383.841 108.208ZM384.779 105.926C385.287 105.926 385.743 105.808 386.149 105.571C386.571 105.318 387.019 104.98 387.492 104.557V101.768C385.802 101.988 384.627 102.318 383.968 102.757C383.309 103.18 382.979 103.704 382.979 104.329C382.979 104.887 383.148 105.292 383.486 105.546C383.825 105.8 384.256 105.926 384.779 105.926Z" fill="white"/>
<path d="M376.595 108.208C375.158 108.208 374.135 107.794 373.527 106.966C372.935 106.121 372.64 105.031 372.64 103.695V97.763H370.865V95.5826L372.792 95.4559L373.147 92.0586H375.58V95.4559H378.75V97.763H375.58V103.695C375.58 105.149 376.164 105.876 377.33 105.876C377.55 105.876 377.778 105.85 378.014 105.8C378.251 105.732 378.454 105.665 378.623 105.597L379.13 107.752C378.792 107.87 378.403 107.972 377.964 108.056C377.541 108.158 377.085 108.208 376.595 108.208Z" fill="white"/>
<path d="M362.549 108.208C361.467 108.208 360.58 107.87 359.887 107.194C359.211 106.518 358.873 105.639 358.873 104.557C358.873 103.222 359.456 102.191 360.622 101.464C361.789 100.721 363.648 100.213 366.2 99.943C366.183 99.2839 366.006 98.7176 365.668 98.2444C365.346 97.7542 364.763 97.5092 363.918 97.5092C363.31 97.5092 362.71 97.6275 362.118 97.8641C361.543 98.1007 360.977 98.3881 360.42 98.7261L359.355 96.7739C360.048 96.3345 360.825 95.9542 361.687 95.6331C362.566 95.3119 363.496 95.1514 364.476 95.1514C366.031 95.1514 367.189 95.6162 367.949 96.5458C368.727 97.4585 369.115 98.7853 369.115 100.526V107.904H366.707L366.504 106.535H366.403C365.845 107.008 365.245 107.405 364.603 107.726C363.977 108.047 363.293 108.208 362.549 108.208ZM363.487 105.926C363.994 105.926 364.451 105.808 364.856 105.571C365.279 105.318 365.727 104.98 366.2 104.557V101.768C364.51 101.988 363.335 102.318 362.676 102.757C362.017 103.18 361.687 103.704 361.687 104.329C361.687 104.887 361.856 105.292 362.194 105.546C362.532 105.8 362.963 105.926 363.487 105.926Z" fill="white"/>
<path d="M343.94 107.904V91.3232H348.377C350.912 91.3232 352.89 92.0078 354.31 93.3768C355.729 94.7459 356.439 96.7994 356.439 99.5375C356.439 102.293 355.738 104.38 354.335 105.8C352.932 107.202 350.997 107.904 348.529 107.904H343.94ZM346.881 105.521H348.174C349.847 105.521 351.14 105.039 352.053 104.076C352.966 103.095 353.422 101.583 353.422 99.5375C353.422 97.5093 352.966 96.0304 352.053 95.1008C351.14 94.1712 349.847 93.7064 348.174 93.7064H346.881V105.521Z" fill="white"/>
<path d="M410.181 16C410.923 16.1178 411.665 16.2078 412.393 16.3602C418.073 17.5516 422.727 22.3659 423.697 28.0599C424.544 33.0473 423.247 37.4251 419.751 41.0826C417.359 43.5901 414.377 45.024 410.923 45.4396C410.514 45.4881 410.105 45.5297 409.696 45.5782C409.349 45.5782 409.002 45.5782 408.655 45.5782C407.927 45.4881 407.192 45.4258 406.464 45.3011C400.701 44.2898 395.916 39.6833 394.723 33.9755C394.571 33.2551 394.487 32.5208 394.369 31.7935C394.369 31.1008 394.369 30.4081 394.369 29.7154C394.46 29.1266 394.536 28.5378 394.647 27.949C395.715 22.1304 400.507 17.3438 406.332 16.2771C406.922 16.1732 407.511 16.0901 408.101 16C408.794 16 409.488 16 410.181 16ZM412.83 36.7601C414.793 35.0977 415.216 32.0498 413.822 29.7916C413.725 29.6392 413.669 29.4314 413.669 29.2513C413.669 28.7318 413.76 28.2123 413.732 27.6997C413.572 24.5687 412.206 22.1512 409.474 20.5372C409.245 20.3986 409.079 20.4125 408.843 20.5372C405.694 22.2828 404.182 25.8571 404.647 29.2167C404.668 29.3621 404.654 29.5492 404.578 29.6669C403.856 30.8029 403.565 32.029 403.725 33.3659C403.891 34.7236 404.515 35.8388 405.5 36.774C407.962 34.7582 410.403 34.7721 412.83 36.7601ZM412.754 39.4062C412.754 39.0807 412.754 38.762 412.754 38.4365C412.754 38.4157 412.754 38.388 412.754 38.3672C412.719 37.9239 412.442 37.6606 412.019 37.6676C411.596 37.6745 411.312 37.9516 411.305 38.388C411.291 39.0668 411.291 39.7457 411.305 40.4245C411.312 40.847 411.617 41.1449 412.026 41.1449C412.442 41.1449 412.733 40.8748 412.754 40.4314C412.768 40.0989 412.754 39.7526 412.754 39.4062ZM405.542 39.3993C405.542 39.7457 405.535 40.092 405.542 40.4384C405.556 40.847 405.847 41.1172 406.256 41.1241C406.644 41.1241 406.963 40.8609 406.977 40.4799C406.998 39.7803 406.998 39.0737 406.977 38.3741C406.97 37.9724 406.637 37.6953 406.242 37.7022C405.847 37.7091 405.556 38.0001 405.542 38.4018C405.528 38.7274 405.542 39.0599 405.542 39.3993ZM409.89 37.7022C409.89 37.4805 409.904 37.2658 409.883 37.0441C409.855 36.6562 409.557 36.3999 409.169 36.393C408.787 36.3861 408.468 36.6493 408.447 37.0303C408.427 37.4528 408.427 37.8823 408.447 38.3048C408.468 38.7066 408.787 38.9906 409.176 38.9837C409.564 38.9768 409.869 38.6858 409.89 38.2841C409.904 38.0901 409.89 37.8962 409.89 37.7022ZM408.441 40.3275C408.434 40.7501 408.711 41.0618 409.127 41.0756C409.55 41.0895 409.89 40.7778 409.897 40.3622C409.904 39.9396 409.592 39.614 409.169 39.614C408.746 39.614 408.447 39.905 408.441 40.3275Z" fill="#232A3D"/>
<path d="M405.692 27.3924C405.762 25.4472 406.689 23.3773 408.773 21.8821C408.981 21.7298 409.126 21.7505 409.32 21.8959C411.383 23.3981 412.387 25.4472 412.394 27.9739C412.4 30.3621 411.438 32.3281 409.569 33.8303C409.251 34.0865 408.856 34.0865 408.531 33.8442C406.751 32.5151 405.692 30.3137 405.692 27.3924ZM410.995 26.0287C410.988 26.0287 410.981 26.0287 410.981 26.0287C410.981 25.8764 410.981 25.731 410.981 25.5787C410.967 24.6165 410.275 23.8342 409.327 23.7096C408.351 23.585 407.423 24.1873 407.222 25.1426C407.132 25.5787 407.146 26.0356 407.153 26.4855C407.16 27.4408 407.887 28.2231 408.835 28.3339C409.818 28.4515 410.732 27.8354 410.94 26.887C410.988 26.6101 410.974 26.3194 410.995 26.0287Z" fill="#232A3D"/>
<path d="M407.31 34.3911C406.791 34.6516 406.286 34.905 405.739 35.1796C404.964 34.0039 404.798 32.7226 405.241 31.2512C405.739 32.4973 406.424 33.5252 407.31 34.3911Z" fill="#232A3D"/>
<path d="M413.065 31.2512C413.536 32.6547 413.335 33.957 412.587 35.1796C412.053 34.9119 411.547 34.6515 411.007 34.3838C411.901 33.4867 412.587 32.4449 413.065 31.2512Z" fill="#232A3D"/>
<path d="M409.845 26.034C409.845 26.1774 409.852 26.3142 409.845 26.4576C409.825 26.8095 409.554 27.0636 409.202 27.0897C408.877 27.1157 408.538 26.9007 408.497 26.5684C408.457 26.2165 408.45 25.8581 408.504 25.5062C408.552 25.1543 408.863 24.9784 409.256 25.0175C409.594 25.05 409.838 25.2977 409.852 25.6496C409.852 25.7734 409.845 25.9037 409.845 26.034Z" fill="#232A3D"/>
<g filter="url(#filter0_d_16_2)">
<path d="M479 154.22C479 149.801 482.582 146.22 487 146.22H551C555.418 146.22 559 149.801 559 154.22V218.22C559 222.638 555.418 226.22 551 226.22H479V154.22Z" fill="white"/>
<path d="M479.5 154.22C479.5 150.078 482.858 146.72 487 146.72H551C555.142 146.72 558.5 150.078 558.5 154.22V218.22C558.5 222.362 555.142 225.72 551 225.72H479.5V154.22Z" stroke="#232A3D"/>
</g>
<path d="M518.76 159.416C516.543 159.427 514.425 159.615 512.562 159.943C507.074 160.908 506.078 162.929 506.078 166.655V171.575H519.047V173.215H506.078H501.211C497.442 173.215 494.141 175.471 493.109 179.761C491.918 184.679 491.865 187.748 493.109 192.883C494.031 196.705 496.232 199.429 500.002 199.429H504.461V193.53C504.461 189.269 508.164 185.51 512.562 185.51H525.516C529.122 185.51 532.001 182.554 532.001 178.949V166.655C532.001 163.156 529.036 160.527 525.516 159.943C523.288 159.574 520.977 159.406 518.76 159.416ZM511.746 163.374C513.086 163.374 514.18 164.481 514.18 165.842C514.18 167.198 513.086 168.295 511.746 168.295C510.402 168.295 509.313 167.198 509.313 165.842C509.313 164.481 510.402 163.374 511.746 163.374Z" fill="url(#paint0_linear_16_2)"/>
<path d="M533.618 173.215V178.948C533.618 183.393 529.833 187.134 525.516 187.134H512.562C509.014 187.134 506.078 190.158 506.078 193.695V205.989C506.078 209.488 509.134 211.546 512.562 212.55C516.668 213.752 520.604 213.969 525.516 212.55C528.781 211.609 532.001 209.715 532.001 205.989V201.069H519.047V199.428H532.001H538.485C542.255 199.428 543.659 196.811 544.97 192.883C546.324 188.838 546.266 184.949 544.97 179.761C544.038 176.025 542.259 173.215 538.485 173.215H533.618ZM526.333 204.349C527.677 204.349 528.766 205.446 528.766 206.802C528.766 208.163 527.677 209.27 526.333 209.27C524.993 209.27 523.899 208.163 523.899 206.802C523.899 205.446 524.993 204.349 526.333 204.349Z" fill="url(#paint1_linear_16_2)"/>
<g filter="url(#filter1_d_16_2)">
<path d="M525 246.22C525 241.801 528.582 238.22 533 238.22H597C601.418 238.22 605 241.801 605 246.22V310.22C605 314.638 601.418 318.22 597 318.22H525V246.22Z" fill="white"/>
<path d="M525.5 246.22C525.5 242.078 528.858 238.72 533 238.72H597C601.142 238.72 604.5 242.078 604.5 246.22V310.22C604.5 314.362 601.142 317.72 597 317.72H525.5V246.22Z" stroke="#232A3D"/>
</g>
<g clip-path="url(#clip0_16_2)">
<path d="M562.014 301.694C557.304 301.36 552.65 300.194 549.795 298.634C548.169 297.745 546.931 296.652 546.445 295.678L546.155 295.099V276.925V258.752L546.384 258.295C547.407 256.252 550.671 254.411 555.227 253.306C556.774 252.931 559.006 252.558 560.828 252.37C562.688 252.177 567.618 252.206 569.473 252.421C574.405 252.991 578.601 254.267 581.187 255.982C582.184 256.644 583.207 257.703 583.554 258.431L583.851 259.056L583.826 277.175L583.8 295.293L583.562 295.77C583.43 296.032 583.034 296.548 582.681 296.917C580.531 299.159 575.918 300.817 569.869 301.524C568.636 301.668 563.279 301.784 562.014 301.694ZM570.692 286.122C570.674 286.075 569.97 285.459 569.128 284.751C568.285 284.043 567.56 283.431 567.515 283.391C567.471 283.35 567.627 283.206 567.861 283.071C568.096 282.936 568.545 282.559 568.86 282.235C569.78 281.286 570.214 280.113 570.214 278.577C570.214 277.065 569.746 275.845 568.808 274.914C567.863 273.976 566.777 273.572 565.197 273.572C562.76 273.572 560.889 274.971 560.292 277.238C560.086 278.018 560.087 279.593 560.294 280.285C560.833 282.088 562.299 283.398 564.125 283.706C564.743 283.81 564.827 283.855 565.248 284.308C565.498 284.577 566.012 285.114 566.389 285.502L567.076 286.206H568.9C569.904 286.206 570.71 286.168 570.692 286.122ZM564.435 281.097C563.995 280.872 563.829 280.697 563.579 280.196C563.385 279.809 563.352 279.589 563.35 278.675C563.348 277.745 563.378 277.545 563.58 277.141C563.91 276.481 564.366 276.168 565.07 276.118C566.051 276.048 566.617 276.522 566.914 277.66C567.278 279.054 566.878 280.537 566.005 281.03C565.547 281.288 564.864 281.317 564.435 281.097ZM556.347 283.686C558.26 283.329 559.346 282.235 559.346 280.664C559.346 279.27 558.645 278.458 556.707 277.607C555.598 277.12 555.196 276.815 555.196 276.457C555.196 276.161 555.577 275.837 556.021 275.755C556.455 275.676 557.604 275.872 558.283 276.142L558.852 276.368V275.129V273.89L558.234 273.756C557.853 273.672 557.051 273.622 556.135 273.625C554.837 273.625 554.583 273.656 554.095 273.847C552.669 274.404 551.992 275.352 552.003 276.779C552.013 278.115 552.729 278.949 554.513 279.698C555.565 280.141 555.987 280.478 555.987 280.876C555.987 281.721 554.554 281.825 553.037 281.09C552.621 280.888 552.248 280.707 552.207 280.687C552.166 280.667 552.133 281.246 552.133 281.973C552.133 283.29 552.135 283.296 552.377 283.387C553.29 283.728 555.307 283.88 556.347 283.686ZM578.218 282.465V281.347H576.489H574.759V277.508V273.669H573.228H571.697V278.626V283.582H574.957H578.218V282.465ZM567.547 262.879C570.59 262.672 572.871 262.28 574.879 261.62C576.879 260.962 578.06 260.166 578.324 259.299C578.426 258.964 578.419 258.837 578.277 258.471C577.639 256.828 574.074 255.565 568.628 255.053C566.298 254.834 562.061 254.905 559.84 255.2C556.451 255.651 553.7 256.487 552.477 257.44C550.003 259.367 552.619 261.487 558.704 262.484C561.342 262.917 564.76 263.07 567.547 262.879Z" fill="#1F69FF"/>
</g>
<g filter="url(#filter2_d_16_2)">
<path d="M583 342.22C583 337.801 586.582 334.22 591 334.22H655C659.418 334.22 663 337.801 663 342.22V406.22C663 410.638 659.418 414.22 655 414.22H583V342.22Z" fill="white"/>
<path d="M583.5 342.22C583.5 338.078 586.858 334.72 591 334.72H655C659.142 334.72 662.5 338.078 662.5 342.22V406.22C662.5 410.362 659.142 413.72 655 413.72H583.5V342.22Z" stroke="#232A3D"/>
</g>
<g clip-path="url(#clip1_16_2)">
<path d="M625.618 372.261L606.054 368.859V393.997C606.054 395.145 606.999 396.076 608.164 396.076H641.922C643.087 396.076 644.031 395.145 644.031 393.997V384.736L625.618 372.261Z" fill="#185C37"/>
<path d="M625.618 350.715H608.164C606.999 350.715 606.054 351.645 606.054 352.793V362.055L625.618 373.395L635.975 376.797L644.031 373.395V362.055L625.618 350.715Z" fill="#21A366"/>
<path d="M606.054 362.055H625.618V373.395H606.054V362.055Z" fill="#107C41"/>
<path opacity="0.1" d="M620.056 359.787H606.054V388.138H620.056C621.22 388.134 622.162 387.205 622.166 386.059V361.866C622.162 360.719 621.22 359.791 620.056 359.787Z" fill="black"/>
<path opacity="0.2" d="M618.905 360.921H606.054V389.271H618.905C620.069 389.268 621.011 388.339 621.015 387.193V363C621.011 361.853 620.069 360.925 618.905 360.921Z" fill="black"/>
<path opacity="0.2" d="M618.905 360.921H606.054V387.003H618.905C620.069 387 621.011 386.071 621.015 384.925V363C621.011 361.853 620.069 360.925 618.905 360.921Z" fill="black"/>
<path opacity="0.2" d="M617.755 360.921H606.054V387.003H617.755C618.918 387 619.86 386.071 619.864 384.925V363C619.86 361.853 618.918 360.925 617.755 360.921Z" fill="black"/>
<path d="M596.656 360.921H617.755C618.92 360.921 619.864 361.852 619.864 363V383.791C619.864 384.939 618.92 385.869 617.755 385.869H596.656C595.491 385.869 594.546 384.939 594.546 383.791V363C594.546 361.852 595.491 360.921 596.656 360.921Z" fill="url(#paint2_linear_16_2)"/>
<path d="M601.079 380.152L605.517 373.376L601.451 366.638H604.722L606.941 370.947C607.145 371.356 607.286 371.66 607.362 371.861H607.39C607.536 371.534 607.69 371.217 607.851 370.91L610.223 366.64H613.225L609.056 373.339L613.331 380.152H610.136L607.573 375.422C607.453 375.221 607.35 375.009 607.267 374.79H607.229C607.154 375.005 607.055 375.21 606.932 375.403L604.294 380.152H601.079Z" fill="white"/>
<path d="M641.922 350.715H625.618V362.055H644.031V352.793C644.031 351.645 643.087 350.715 641.922 350.715Z" fill="#33C481"/>
<path d="M625.618 373.396H644.031V384.736H625.618V373.396Z" fill="#107C41"/>
</g>
<circle cx="479" cy="226.22" r="3" fill="#232A3D"/>
<circle cx="526" cy="318.22" r="3" fill="#232A3D"/>
<circle cx="583" cy="414.22" r="3" fill="#232A3D"/>
<defs>
<filter id="filter0_d_16_2" x="469" y="137.22" width="100" height="100" filterUnits="userSpaceOnUse" color-interpolation-filters="sRGB">
<feFlood flood-opacity="0" result="BackgroundImageFix"/>
<feColorMatrix in="SourceAlpha" type="matrix" values="0 0 0 0 0 0 0 0 0 0 0 0 0 0 0 0 0 0 127 0" result="hardAlpha"/>
<feOffset dy="1"/>
<feGaussianBlur stdDeviation="5"/>
<feComposite in2="hardAlpha" operator="out"/>
<feColorMatrix type="matrix" values="0 0 0 0 0 0 0 0 0 0 0 0 0 0 0 0 0 0 0.12 0"/>
<feBlend mode="normal" in2="BackgroundImageFix" result="effect1_dropShadow_16_2"/>
<feBlend mode="normal" in="SourceGraphic" in2="effect1_dropShadow_16_2" result="shape"/>
</filter>
<filter id="filter1_d_16_2" x="515" y="229.22" width="100" height="100" filterUnits="userSpaceOnUse" color-interpolation-filters="sRGB">
<feFlood flood-opacity="0" result="BackgroundImageFix"/>
<feColorMatrix in="SourceAlpha" type="matrix" values="0 0 0 0 0 0 0 0 0 0 0 0 0 0 0 0 0 0 127 0" result="hardAlpha"/>
<feOffset dy="1"/>
<feGaussianBlur stdDeviation="5"/>
<feComposite in2="hardAlpha" operator="out"/>
<feColorMatrix type="matrix" values="0 0 0 0 0 0 0 0 0 0 0 0 0 0 0 0 0 0 0.12 0"/>
<feBlend mode="normal" in2="BackgroundImageFix" result="effect1_dropShadow_16_2"/>
<feBlend mode="normal" in="SourceGraphic" in2="effect1_dropShadow_16_2" result="shape"/>
</filter>
<filter id="filter2_d_16_2" x="573" y="325.22" width="100" height="100" filterUnits="userSpaceOnUse" color-interpolation-filters="sRGB">
<feFlood flood-opacity="0" result="BackgroundImageFix"/>
<feColorMatrix in="SourceAlpha" type="matrix" values="0 0 0 0 0 0 0 0 0 0 0 0 0 0 0 0 0 0 127 0" result="hardAlpha"/>
<feOffset dy="1"/>
<feGaussianBlur stdDeviation="5"/>
<feComposite in2="hardAlpha" operator="out"/>
<feColorMatrix type="matrix" values="0 0 0 0 0 0 0 0 0 0 0 0 0 0 0 0 0 0 0.12 0"/>
<feBlend mode="normal" in2="BackgroundImageFix" result="effect1_dropShadow_16_2"/>
<feBlend mode="normal" in="SourceGraphic" in2="effect1_dropShadow_16_2" result="shape"/>
</filter>
<linearGradient id="paint0_linear_16_2" x1="492.196" y1="159.416" x2="521.988" y2="184.917" gradientUnits="userSpaceOnUse">
<stop stop-color="#5A9FD4"/>
<stop offset="1" stop-color="#306998"/>
</linearGradient>
<linearGradient id="paint1_linear_16_2" x1="526.021" y1="206.388" x2="515.356" y2="191.376" gradientUnits="userSpaceOnUse">
<stop stop-color="#FFD43B"/>
<stop offset="1" stop-color="#FFE873"/>
</linearGradient>
<linearGradient id="paint2_linear_16_2" x1="598.945" y1="359.297" x2="615.104" y2="387.699" gradientUnits="userSpaceOnUse">
<stop stop-color="#18884F"/>
<stop offset="0.5" stop-color="#117E43"/>
<stop offset="1" stop-color="#0B6631"/>
</linearGradient>
<clipPath id="clip0_16_2">
<rect width="50.3093" height="49.4845" fill="white" transform="translate(539.845 252.241)"/>
</clipPath>
<clipPath id="clip1_16_2">
<rect width="49.4845" height="45.3608" fill="white" transform="translate(594.546 350.715)"/>
</clipPath>
</defs>
</svg>
